<svg width="986" height="986" viewBox="0 0 986 986" fill="none" xmlns="http://www.w3.org/2000/svg">
<g filter="url(#filter0_i_5_85)">
<circle cx="493" cy="493" r="493" fill="url(#paint0_linear_5_85)"/>
</g>
<circle cx="493" cy="493" r="463" stroke="#11253E" stroke-width="60"/>
<path d="M212.037 317.033C209.53 313.97 208.004 310.561 207.461 306.805C206.95 303.024 207.378 299.336 208.743 295.741C210.114 292.088 212.363 288.981 215.491 286.421L251.087 257.285L259.4 267.441L223.804 296.578C221.934 298.108 220.863 300.089 220.591 302.519C220.319 304.95 220.948 307.1 222.479 308.97L226.359 313.71C227.758 315.419 229.635 316.331 231.993 316.448C234.35 316.565 236.463 315.858 238.333 314.327L260.242 296.394C263.402 293.807 266.892 292.216 270.711 291.62C274.505 290.992 278.202 291.331 281.802 292.638C285.408 293.886 288.465 296.042 290.972 299.105L297.108 306.601C299.616 309.664 301.138 313.103 301.675 316.917C302.218 320.672 301.82 324.363 300.481 327.99C299.116 331.584 296.853 334.675 293.694 337.261L254.761 369.129L246.408 358.925L285.341 327.056C287.243 325.499 288.34 323.551 288.633 321.212C288.932 318.813 288.342 316.711 286.864 314.906L280.807 307.506C279.329 305.701 277.385 304.707 274.975 304.526C272.598 304.318 270.458 304.993 268.555 306.55L246.647 324.484C243.519 327.044 240.056 328.667 236.256 329.354C232.463 329.982 228.776 329.688 225.197 328.472C221.649 327.23 218.648 325.11 216.194 322.111L212.037 317.033Z" fill="black"/>
<path d="M734.965 254.949L745.17 263.302L722.368 291.16L727.446 295.317L777.526 289.785L791.6 301.305L730.496 308.07L737.388 371.782L723.12 360.104L717.014 303.82L714.015 301.365L688.878 332.077L678.673 323.724L734.965 254.949Z" fill="black"/>
<path d="M299.855 224.442L314.603 217.184L382.392 282.876L369.775 289.085L349.271 269.363L327.009 280.32L325.475 266.446L339.213 259.684L314.875 236.276L323.176 312.021L310.559 318.231L299.855 224.442Z" fill="black"/>
<path d="M649.291 205.507L691.534 226.111C695.167 227.882 698.024 230.388 700.106 233.629C702.243 236.85 703.471 240.37 703.788 244.187C704.142 248.022 703.434 251.756 701.662 255.388L697.771 263.365C696 266.998 693.521 269.845 690.337 271.908C687.189 273.989 683.697 275.16 679.861 275.422C676.025 275.683 672.253 274.91 668.546 273.101L676.336 317.58L661.899 310.539L654.109 266.06L644.952 261.594L650.706 249.797L674.355 261.332C676.565 262.41 678.803 262.574 681.069 261.825C683.353 261.038 685.016 259.578 686.057 257.443L689.865 249.635C690.925 247.463 691.061 245.235 690.275 242.95C689.488 240.666 687.99 238.985 685.78 237.907L655.39 223.085L622.183 291.168L610.331 285.387L649.291 205.507Z" fill="black"/>
<path d="M365.695 190.814L377.404 187.915L413.677 215.056L433.097 174.127L444.806 171.228L466.165 257.498L453.364 260.667L437.397 196.177L422.41 227.445L411.793 230.074L383.888 209.425L399.854 273.915L387.053 277.084L365.695 190.814Z" fill="black"/>
<path d="M480.15 166.291L527.141 167.217C531.182 167.297 534.828 168.369 538.08 170.433C541.374 172.457 543.967 175.134 545.86 178.463C547.795 181.794 548.723 185.479 548.643 189.52L548.468 198.393C548.39 202.351 547.319 205.956 545.254 209.207C543.232 212.418 540.536 214.969 537.164 216.862C533.836 218.713 530.151 219.599 526.11 219.519L499.803 219.001L500.061 205.878L526.369 206.397C528.826 206.445 530.926 205.653 532.667 204.021C534.408 202.388 535.302 200.363 535.349 197.947L535.521 189.261C535.568 186.845 534.755 184.766 533.081 183.025C531.406 181.283 529.34 180.388 526.882 180.34L493.076 179.673L491.583 255.408L478.399 255.149L480.15 166.291Z" fill="black"/>
<path d="M593.918 183.196L609.252 189.118L606.907 283.486L593.789 278.419L594.39 249.975L571.244 241.036L580.403 230.504L594.688 236.021L595.399 202.26L545.34 259.707L532.221 254.64L593.918 183.196Z" fill="black"/>
<path d="M493.433 318C413.432 376.477 366.094 393.748 277 397.608V504.58V534.433L279.488 559.31L283.219 584.188L287.573 610.931L296.902 640.784L307.475 665.661L323.645 694.27L339.193 721.013L357.851 742.781L382.107 765.17L410.716 790.67L444.922 813.681L466.69 826.742L495.299 838.558L517.066 826.742L538.834 813.681L573.04 790.67L603.515 765.17L626.527 742.781L644.563 721.013L663.843 694.27L678.769 665.661L689.964 640.784L698.671 610.931L704.89 584.188L708 559.31V534.433V492.141V397.608C625.97 396.881 578.588 375.93 493.433 318Z" fill="#193150"/>
<path d="M660.573 564.116L660.51 564.615L658.258 582.627L658.207 583.045L658.111 583.455L653.608 602.817L653.557 603.035L653.495 603.25L647.191 624.864L647.033 625.404L646.802 625.918L638.697 643.93L638.6 644.144L638.492 644.352L627.685 665.065L627.416 665.581L627.075 666.054L613.116 685.416L612.958 685.637L612.784 685.846L599.725 701.606L599.449 701.94L599.137 702.242L582.477 718.453L582.259 718.664L582.027 718.858L559.963 737.32L559.638 737.592L559.288 737.828L534.522 754.489L534.348 754.605L534.168 754.714L518.409 764.17L518.259 764.259L518.106 764.343L502.346 772.897L498.961 774.735L495.402 773.265L474.689 764.709L474.131 764.479L473.616 764.17L457.855 754.714L457.675 754.605L457.502 754.489L432.736 737.828L432.28 737.521L431.87 737.155L411.156 718.693L411.104 718.646L411.052 718.599L393.491 702.389L393.143 702.068L392.835 701.709L379.328 685.949L378.847 685.389L378.476 684.751L367.219 665.389L367.194 665.347L367.17 665.304L355.462 644.59L355.239 644.193L355.06 643.774L347.405 625.763L347.249 625.395L347.129 625.012L340.375 603.398L340.204 602.852L340.112 602.285L336.959 582.923L336.944 582.823L334.243 564.812L334.213 564.615L334.193 564.417L332.392 546.405L332.352 546.004V438.795L340.087 438.46C371.87 437.083 395.66 433.335 418.468 424.958C441.329 416.562 463.681 403.341 492.367 382.373L496.97 379.008L501.685 382.216C532.388 403.103 555.751 416.947 578.558 425.702C601.191 434.39 623.627 438.196 652.559 438.452L660.573 438.523V564.116Z" fill="url(#paint1_linear_5_85)" stroke="white" stroke-width="16.1703"/>
<path d="M496 495.5C540.932 495.5 577.5 532.357 577.5 578C577.5 623.643 540.932 660.5 496 660.5C451.068 660.5 414.5 623.643 414.5 578C414.5 532.357 451.068 495.5 496 495.5Z" fill="#193150" stroke="white" stroke-width="15"/>
<ellipse cx="496.5" cy="578" rx="74.5" ry="75" fill="#193150"/>
<path d="M446.127 556.741L409.818 508.196L470.014 501.024L446.127 556.741Z" fill="#193150" stroke="white" stroke-width="15"/>
<path d="M555.371 636.662L565.661 576.92L612.254 615.703L555.371 636.662Z" fill="#193150" stroke="white" stroke-width="15"/>
<path d="M456.695 612.125C455.908 612.125 455.193 611.929 454.549 611.537C453.905 611.145 453.405 610.626 453.047 609.979C452.689 609.333 452.493 608.634 452.459 607.885C452.425 607.135 452.621 606.403 453.047 605.687L492.745 537.021C493.174 536.306 493.729 535.769 494.41 535.411C495.091 535.054 495.788 534.875 496.5 534.875C497.212 534.875 497.911 535.054 498.594 535.411C499.278 535.769 499.832 536.306 500.255 537.021L539.953 605.687C540.382 606.403 540.58 607.137 540.545 607.889C540.511 608.642 540.314 609.338 539.953 609.979C539.593 610.62 539.092 611.139 538.451 611.537C537.81 611.935 537.095 612.131 536.305 612.125H456.695ZM496.5 599.25C497.716 599.25 498.736 598.838 499.56 598.014C500.384 597.19 500.795 596.171 500.792 594.958C500.789 593.745 500.377 592.727 499.556 591.903C498.735 591.079 497.716 590.667 496.5 590.667C495.284 590.667 494.265 591.079 493.444 591.903C492.623 592.727 492.211 593.745 492.208 594.958C492.205 596.171 492.617 597.191 493.444 598.018C494.271 598.845 495.29 599.256 496.5 599.25ZM496.5 586.375C497.716 586.375 498.736 585.963 499.56 585.139C500.384 584.315 500.795 583.296 500.792 582.083V569.208C500.792 567.992 500.38 566.974 499.556 566.153C498.732 565.332 497.713 564.92 496.5 564.917C495.287 564.914 494.268 565.326 493.444 566.153C492.62 566.98 492.208 567.998 492.208 569.208V582.083C492.208 583.299 492.62 584.319 493.444 585.143C494.268 585.967 495.287 586.378 496.5 586.375Z" fill="#BC1010"/>
<defs>
<filter id="filter0_i_5_85" x="0" y="0" width="986" height="990" filterUnits="userSpaceOnUse" color-interpolation-filters="sRGB">
<feFlood flood-opacity="0" result="BackgroundImageFix"/>
<feBlend mode="normal" in="SourceGraphic" in2="BackgroundImageFix" result="shape"/>
<feColorMatrix in="SourceAlpha" type="matrix" values="0 0 0 0 0 0 0 0 0 0 0 0 0 0 0 0 0 0 127 0" result="hardAlpha"/>
<feOffset dy="4"/>
<feGaussianBlur stdDeviation="2"/>
<feComposite in2="hardAlpha" operator="arithmetic" k2="-1" k3="1"/>
<feColorMatrix type="matrix" values="0 0 0 0 0 0 0 0 0 0 0 0 0 0 0 0 0 0 0.25 0"/>
<feBlend mode="normal" in2="shape" result="effect1_innerShadow_5_85"/>
</filter>
<linearGradient id="paint0_linear_5_85" x1="882.5" y1="188" x2="92.5" y2="775" gradientUnits="userSpaceOnUse">
<stop stop-color="#D8D8D8"/>
<stop offset="1" stop-color="#727272"/>
</linearGradient>
<linearGradient id="paint1_linear_5_85" x1="652.648" y1="494.629" x2="367.802" y2="655.71" gradientUnits="userSpaceOnUse">
<stop stop-color="#CF5025"/>
<stop offset="1" stop-color="#692913"/>
</linearGradient>
</defs>
</svg>
